<svg width="2229" height="1757" viewBox="0 0 2229 1757" fill="none" xmlns="http://www.w3.org/2000/svg">
<path d="M1 1L1.00007 1664.99" stroke="#D4D4FA" stroke-width="0.8037"/>
<path d="M20.2891 1L20.2891 1664.99" stroke="#D4D4FA" stroke-width="0.8037"/>
<path d="M39.5781 1L39.5782 1664.99" stroke="#D4D4FA" stroke-width="0.8037"/>
<path d="M58.8662 1L58.8663 1664.99" stroke="#D4D4FA" stroke-width="0.8037"/>
<path d="M78.1553 1L78.1553 1664.99" stroke="#D4D4FA" stroke-width="0.8037"/>
<path d="M97.4443 1L97.4444 1664.99" stroke="#D4D4FA" stroke-width="0.8037"/>
<path d="M116.733 1L116.733 1664.99" stroke="#D4D4FA" stroke-width="0.8037"/>
<path d="M136.022 1L136.023 1664.99" stroke="#D4D4FA" stroke-width="0.8037"/>
<path d="M155.311 1L155.311 1664.99" stroke="#D4D4FA" stroke-width="0.8037"/>
<path d="M174.6 1L174.6 1664.99" stroke="#D4D4FA" stroke-width="0.8037"/>
<path d="M193.889 1L193.889 1664.99" stroke="#D4D4FA" stroke-width="0.8037"/>
<path d="M213.178 1L213.178 1664.99" stroke="#D4D4FA" stroke-width="0.8037"/>
<path d="M232.467 1L232.467 1664.99" stroke="#D4D4FA" stroke-width="0.8037"/>
<path d="M251.756 1L251.756 1664.99" stroke="#D4D4FA" stroke-width="0.8037"/>
<path d="M271.045 1L271.045 1664.99" stroke="#D4D4FA" stroke-width="0.8037"/>
<path d="M290.332 1L290.332 1664.99" stroke="#D4D4FA" stroke-width="0.8037"/>
<path d="M309.621 1L309.621 1664.99" stroke="#D4D4FA" stroke-width="0.8037"/>
<path d="M328.91 1L328.91 1664.99" stroke="#D4D4FA" stroke-width="0.8037"/>
<path d="M348.199 1L348.199 1664.99" stroke="#D4D4FA" stroke-width="0.8037"/>
<path d="M367.488 1L367.488 1664.99" stroke="#D4D4FA" stroke-width="0.8037"/>
<path d="M386.777 1L386.777 1664.99" stroke="#D4D4FA" stroke-width="0.8037"/>
<path d="M406.066 1L406.066 1664.99" stroke="#D4D4FA" stroke-width="0.8037"/>
<path d="M425.355 1L425.356 1664.99" stroke="#D4D4FA" stroke-width="0.8037"/>
<path d="M444.645 1L444.645 1664.99" stroke="#D4D4FA" stroke-width="0.8037"/>
<path d="M463.932 1L463.932 1664.99" stroke="#D4D4FA" stroke-width="0.8037"/>
<path d="M483.221 1L483.221 1664.99" stroke="#D4D4FA" stroke-width="0.8037"/>
<path d="M502.51 1L502.51 1664.99" stroke="#D4D4FA" stroke-width="0.8037"/>
<path d="M521.799 1L521.799 1664.99" stroke="#D4D4FA" stroke-width="0.8037"/>
<path d="M541.088 1L541.088 1664.99" stroke="#D4D4FA" stroke-width="0.8037"/>
<path d="M560.377 1L560.377 1664.99" stroke="#D4D4FA" stroke-width="0.8037"/>
<path d="M579.666 1L579.666 1664.99" stroke="#D4D4FA" stroke-width="0.8037"/>
<path d="M598.955 1L598.955 1664.99" stroke="#D4D4FA" stroke-width="0.8037"/>
<path d="M618.244 1L618.244 1664.99" stroke="#D4D4FA" stroke-width="0.8037"/>
<path d="M637.533 1L637.533 1664.99" stroke="#D4D4FA" stroke-width="0.8037"/>
<path d="M656.82 1L656.82 1664.99" stroke="#D4D4FA" stroke-width="0.8037"/>
<path d="M676.109 1L676.109 1664.99" stroke="#D4D4FA" stroke-width="0.8037"/>
<path d="M695.398 1L695.399 1664.99" stroke="#D4D4FA" stroke-width="0.8037"/>
<path d="M714.688 1L714.688 1664.99" stroke="#D4D4FA" stroke-width="0.8037"/>
<path d="M733.977 1L733.977 1664.99" stroke="#D4D4FA" stroke-width="0.8037"/>
<path d="M753.266 1L753.266 1664.99" stroke="#D4D4FA" stroke-width="0.8037"/>
<path d="M772.555 1L772.555 1664.99" stroke="#D4D4FA" stroke-width="0.8037"/>
<path d="M791.844 1L791.844 1664.99" stroke="#D4D4FA" stroke-width="0.8037"/>
<path d="M811.133 1L811.133 1664.99" stroke="#D4D4FA" stroke-width="0.8037"/>
<path d="M830.422 1L830.422 1664.99" stroke="#D4D4FA" stroke-width="0.8037"/>
<path d="M849.711 1L849.711 1664.99" stroke="#D4D4FA" stroke-width="0.8037"/>
<path d="M868.998 1L868.998 1664.99" stroke="#D4D4FA" stroke-width="0.8037"/>
<path d="M888.287 1L888.287 1664.99" stroke="#D4D4FA" stroke-width="0.8037"/>
<path d="M907.576 1L907.576 1664.99" stroke="#D4D4FA" stroke-width="0.8037"/>
<path d="M926.865 1L926.865 1664.99" stroke="#D4D4FA" stroke-width="0.8037"/>
<path d="M946.154 1L946.154 1664.99" stroke="#D4D4FA" stroke-width="0.8037"/>
<path d="M965.443 1L965.443 1664.99" stroke="#D4D4FA" stroke-width="0.8037"/>
<path d="M984.732 1L984.732 1664.99" stroke="#D4D4FA" stroke-width="0.8037"/>
<path d="M1004.02 1L1004.02 1664.99" stroke="#D4D4FA" stroke-width="0.8037"/>
<path d="M1023.31 1L1023.31 1664.99" stroke="#D4D4FA" stroke-width="0.8037"/>
<path d="M1042.6 1L1042.6 1664.99" stroke="#D4D4FA" stroke-width="0.8037"/>
<path d="M1061.89 1L1061.89 1664.99" stroke="#D4D4FA" stroke-width="0.8037"/>
<path d="M1081.18 1L1081.18 1664.99" stroke="#D4D4FA" stroke-width="0.8037"/>
<path d="M1100.46 1L1100.46 1664.99" stroke="#D4D4FA" stroke-width="0.8037"/>
<path d="M1119.97 1L1119.97 1664.99" stroke="#D4D4FA" stroke-width="0.8037"/>
<path d="M1139.26 1L1139.26 1664.99" stroke="#D4D4FA" stroke-width="0.8037"/>
<path d="M1158.55 1L1158.55 1664.99" stroke="#D4D4FA" stroke-width="0.8037"/>
<path d="M1177.84 1L1177.84 1664.99" stroke="#D4D4FA" stroke-width="0.8037"/>
<path d="M1197.13 1L1197.13 1664.99" stroke="#D4D4FA" stroke-width="0.8037"/>
<path d="M1216.41 1L1216.41 1664.99" stroke="#D4D4FA" stroke-width="0.8037"/>
<path d="M1235.7 1L1235.7 1664.99" stroke="#D4D4FA" stroke-width="0.8037"/>
<path d="M1254.99 1L1254.99 1664.99" stroke="#D4D4FA" stroke-width="0.8037"/>
<path d="M1274.28 1L1274.28 1664.99" stroke="#D4D4FA" stroke-width="0.8037"/>
<path d="M1293.57 1L1293.57 1664.99" stroke="#D4D4FA" stroke-width="0.8037"/>
<path d="M1312.86 1L1312.86 1664.99" stroke="#D4D4FA" stroke-width="0.8037"/>
<path d="M1332.15 1L1332.15 1664.99" stroke="#D4D4FA" stroke-width="0.8037"/>
<path d="M1351.44 1L1351.44 1664.99" stroke="#D4D4FA" stroke-width="0.8037"/>
<path d="M1370.73 1L1370.73 1664.99" stroke="#D4D4FA" stroke-width="0.8037"/>
<path d="M1390.02 1L1390.02 1664.99" stroke="#D4D4FA" stroke-width="0.8037"/>
<path d="M1409.3 1L1409.3 1664.99" stroke="#D4D4FA" stroke-width="0.8037"/>
<path d="M1428.59 1L1428.59 1664.99" stroke="#D4D4FA" stroke-width="0.8037"/>
<path d="M1447.88 1L1447.88 1664.99" stroke="#D4D4FA" stroke-width="0.8037"/>
<path d="M1467.17 1L1467.17 1664.99" stroke="#D4D4FA" stroke-width="0.8037"/>
<path d="M1486.46 1L1486.46 1664.99" stroke="#D4D4FA" stroke-width="0.8037"/>
<path d="M1505.75 1L1505.75 1664.99" stroke="#D4D4FA" stroke-width="0.8037"/>
<path d="M1525.04 1L1525.04 1664.99" stroke="#D4D4FA" stroke-width="0.8037"/>
<path d="M1544.33 1L1544.33 1664.99" stroke="#D4D4FA" stroke-width="0.8037"/>
<path d="M1563.62 1L1563.62 1664.99" stroke="#D4D4FA" stroke-width="0.8037"/>
<path d="M1582.9 1L1582.9 1664.99" stroke="#D4D4FA" stroke-width="0.8037"/>
<path d="M1602.19 1L1602.19 1664.99" stroke="#D4D4FA" stroke-width="0.8037"/>
<path d="M1621.48 1L1621.48 1664.99" stroke="#D4D4FA" stroke-width="0.8037"/>
<path d="M1640.77 1L1640.77 1664.99" stroke="#D4D4FA" stroke-width="0.8037"/>
<path d="M1660.06 1L1660.06 1664.99" stroke="#D4D4FA" stroke-width="0.8037"/>
<path d="M1679.35 1L1679.35 1664.99" stroke="#D4D4FA" stroke-width="0.8037"/>
<path d="M1698.64 1L1698.64 1664.99" stroke="#D4D4FA" stroke-width="0.8037"/>
<path d="M1717.93 1L1717.93 1664.99" stroke="#D4D4FA" stroke-width="0.8037"/>
<path d="M1737.21 1L1737.21 1664.99" stroke="#D4D4FA" stroke-width="0.8037"/>
<path d="M1756.5 1L1756.5 1664.99" stroke="#D4D4FA" stroke-width="0.8037"/>
<path d="M1775.79 1L1775.79 1664.99" stroke="#D4D4FA" stroke-width="0.8037"/>
<path d="M1795.08 1L1795.08 1664.99" stroke="#D4D4FA" stroke-width="0.8037"/>
<path d="M1814.37 1L1814.37 1664.99" stroke="#D4D4FA" stroke-width="0.8037"/>
<path d="M1833.66 1L1833.66 1664.99" stroke="#D4D4FA" stroke-width="0.8037"/>
<path d="M1852.95 1L1852.95 1664.99" stroke="#D4D4FA" stroke-width="0.8037"/>
<path d="M1872.24 1L1872.24 1664.99" stroke="#D4D4FA" stroke-width="0.8037"/>
<path d="M1891.53 1L1891.53 1664.99" stroke="#D4D4FA" stroke-width="0.8037"/>
<path d="M1910.81 1L1910.81 1664.99" stroke="#D4D4FA" stroke-width="0.8037"/>
<path d="M1930.1 1L1930.1 1664.99" stroke="#D4D4FA" stroke-width="0.8037"/>
<path d="M1949.39 1L1949.39 1664.99" stroke="#D4D4FA" stroke-width="0.8037"/>
<path d="M1968.68 1L1968.68 1664.99" stroke="#D4D4FA" stroke-width="0.8037"/>
<path d="M1987.97 1L1987.97 1664.99" stroke="#D4D4FA" stroke-width="0.8037"/>
<path d="M2007.26 1L2007.26 1664.99" stroke="#D4D4FA" stroke-width="0.8037"/>
<path d="M2026.55 1L2026.55 1664.99" stroke="#D4D4FA" stroke-width="0.8037"/>
<path d="M2045.84 1L2045.84 1664.99" stroke="#D4D4FA" stroke-width="0.8037"/>
<path d="M2065.12 1L2065.13 1664.99" stroke="#D4D4FA" stroke-width="0.8037"/>
<path d="M2084.41 1L2084.41 1664.99" stroke="#D4D4FA" stroke-width="0.8037"/>
<path d="M2103.7 1L2103.7 1664.99" stroke="#D4D4FA" stroke-width="0.8037"/>
<path d="M2122.99 1L2122.99 1664.99" stroke="#D4D4FA" stroke-width="0.8037"/>
<path d="M2142.28 1L2142.28 1664.99" stroke="#D4D4FA" stroke-width="0.8037"/>
<path d="M2161.57 1L2161.57 1664.99" stroke="#D4D4FA" stroke-width="0.8037"/>
<path d="M2180.86 1L2180.86 1664.99" stroke="#D4D4FA" stroke-width="0.8037"/>
<path d="M2200.15 1L2200.15 1664.99" stroke="#D4D4FA" stroke-width="0.8037"/>
<path d="M2219.44 1L2219.44 1664.99" stroke="#D4D4FA" stroke-width="0.8037"/>
<path d="M2229 1L1.00006 1" stroke="#D4D4FA" stroke-width="0.8037"/>
<path d="M2229 20.2888L1.00006 20.2888" stroke="#D4D4FA" stroke-width="0.8037"/>
<path d="M2229 39.5779L1.00006 39.5779" stroke="#D4D4FA" stroke-width="0.8037"/>
<path d="M2229 58.8667L1.00006 58.8667" stroke="#D4D4FA" stroke-width="0.8037"/>
<path d="M2229 78.1555L1.00006 78.1555" stroke="#D4D4FA" stroke-width="0.8037"/>
<path d="M2229 97.4443L1.00006 97.4443" stroke="#D4D4FA" stroke-width="0.8037"/>
<path d="M2229 116.733L1.00006 116.733" stroke="#D4D4FA" stroke-width="0.8037"/>
<path d="M2229 136.022L1.00006 136.022" stroke="#D4D4FA" stroke-width="0.8037"/>
<path d="M2229 155.311L1.00006 155.311" stroke="#D4D4FA" stroke-width="0.8037"/>
<path d="M2229 174.6L1.00006 174.6" stroke="#D4D4FA" stroke-width="0.8037"/>
<path d="M2229 193.889L1.00006 193.889" stroke="#D4D4FA" stroke-width="0.8037"/>
<path d="M2229 213.178L1.00006 213.178" stroke="#D4D4FA" stroke-width="0.8037"/>
<path d="M2229 232.467L1.00006 232.467" stroke="#D4D4FA" stroke-width="0.8037"/>
<path d="M2229 251.755L1.00006 251.755" stroke="#D4D4FA" stroke-width="0.8037"/>
<path d="M2229 271.044L1.00006 271.044" stroke="#D4D4FA" stroke-width="0.8037"/>
<path d="M2229 290.333L1.00006 290.333" stroke="#D4D4FA" stroke-width="0.8037"/>
<path d="M2229 309.622L1.00006 309.622" stroke="#D4D4FA" stroke-width="0.8037"/>
<path d="M2229 328.911L1.00006 328.911" stroke="#D4D4FA" stroke-width="0.8037"/>
<path d="M2229 348.2L1.00006 348.2" stroke="#D4D4FA" stroke-width="0.8037"/>
<path d="M2229 367.489L1.00006 367.489" stroke="#D4D4FA" stroke-width="0.8037"/>
<path d="M2229 386.778L1.00006 386.778" stroke="#D4D4FA" stroke-width="0.8037"/>
<path d="M2229 406.066L1.00006 406.066" stroke="#D4D4FA" stroke-width="0.8037"/>
<path d="M2229 425.355L1.00006 425.355" stroke="#D4D4FA" stroke-width="0.8037"/>
<path d="M2229 444.644L1.00006 444.644" stroke="#D4D4FA" stroke-width="0.8037"/>
<path d="M2229 463.933L1.00006 463.933" stroke="#D4D4FA" stroke-width="0.8037"/>
<path d="M2229 483.222L1.00006 483.222" stroke="#D4D4FA" stroke-width="0.8037"/>
<path d="M2229 502.511L1.00006 502.511" stroke="#D4D4FA" stroke-width="0.8037"/>
<path d="M2229 521.8L1.00006 521.8" stroke="#D4D4FA" stroke-width="0.8037"/>
<path d="M2229 541.089L1.00006 541.089" stroke="#D4D4FA" stroke-width="0.8037"/>
<path d="M2229 560.377L1.00006 560.377" stroke="#D4D4FA" stroke-width="0.8037"/>
<path d="M2229 579.667L1.00006 579.667" stroke="#D4D4FA" stroke-width="0.8037"/>
<path d="M2229 598.955L1.00006 598.955" stroke="#D4D4FA" stroke-width="0.8037"/>
<path d="M2229 618.244L1.00006 618.244" stroke="#D4D4FA" stroke-width="0.8037"/>
<path d="M2229 637.533L1.00006 637.533" stroke="#D4D4FA" stroke-width="0.8037"/>
<path d="M2229 656.822L1.00006 656.822" stroke="#D4D4FA" stroke-width="0.8037"/>
<path d="M2229 676.111L1.00006 676.111" stroke="#D4D4FA" stroke-width="0.8037"/>
<path d="M2229 695.4L1.00006 695.4" stroke="#D4D4FA" stroke-width="0.8037"/>
<path d="M2229 714.688L1.00006 714.688" stroke="#D4D4FA" stroke-width="0.8037"/>
<path d="M2229 733.978L1.00006 733.978" stroke="#D4D4FA" stroke-width="0.8037"/>
<path d="M2229 753.267L1.00006 753.267" stroke="#D4D4FA" stroke-width="0.8037"/>
<path d="M2229 772.555L1.00006 772.555" stroke="#D4D4FA" stroke-width="0.8037"/>
<path d="M2229 791.844L1.00006 791.844" stroke="#D4D4FA" stroke-width="0.8037"/>
<path d="M2229 811.133L1.00006 811.133" stroke="#D4D4FA" stroke-width="0.8037"/>
<path d="M2229 830.422L1.00006 830.422" stroke="#D4D4FA" stroke-width="0.8037"/>
<path d="M2229 849.711L1.00006 849.711" stroke="#D4D4FA" stroke-width="0.8037"/>
<path d="M2229 869L1.00006 869" stroke="#D4D4FA" stroke-width="0.8037"/>
<path d="M2229 888.289L1.00006 888.289" stroke="#D4D4FA" stroke-width="0.8037"/>
<path d="M2229 907.577L1.00006 907.577" stroke="#D4D4FA" stroke-width="0.8037"/>
<path d="M2229 926.866L1.00006 926.866" stroke="#D4D4FA" stroke-width="0.8037"/>
<path d="M2229 946.155L1.00006 946.155" stroke="#D4D4FA" stroke-width="0.8037"/>
<path d="M2229 965.444L1.00006 965.444" stroke="#D4D4FA" stroke-width="0.8037"/>
<path d="M2229 984.733L1.00006 984.733" stroke="#D4D4FA" stroke-width="0.8037"/>
<path d="M2229 1004.02L1.00006 1004.02" stroke="#D4D4FA" stroke-width="0.8037"/>
<path d="M2229 1023.31L1.00006 1023.31" stroke="#D4D4FA" stroke-width="0.8037"/>
<path d="M2229 1042.6L1.00006 1042.6" stroke="#D4D4FA" stroke-width="0.8037"/>
<path d="M2229 1061.89L1.00006 1061.89" stroke="#D4D4FA" stroke-width="0.8037"/>
<path d="M2229 1081.18L1.00006 1081.18" stroke="#D4D4FA" stroke-width="0.8037"/>
<path d="M2229 1100.47L1.00006 1100.47" stroke="#D4D4FA" stroke-width="0.8037"/>
<path d="M2229 1119.76L1.00006 1119.76" stroke="#D4D4FA" stroke-width="0.8037"/>
<path d="M2229 1139.04L1.00006 1139.04" stroke="#D4D4FA" stroke-width="0.8037"/>
<path d="M2229 1158.33L1.00006 1158.33" stroke="#D4D4FA" stroke-width="0.8037"/>
<path d="M2229 1177.62L1.00006 1177.62" stroke="#D4D4FA" stroke-width="0.8037"/>
<path d="M2229 1196.91L1.00006 1196.91" stroke="#D4D4FA" stroke-width="0.8037"/>
<path d="M2229 1216.2L1.00006 1216.2" stroke="#D4D4FA" stroke-width="0.8037"/>
<path d="M2229 1235.49L1.00006 1235.49" stroke="#D4D4FA" stroke-width="0.8037"/>
<path d="M2229 1254.78L1.00006 1254.78" stroke="#D4D4FA" stroke-width="0.8037"/>
<path d="M2229 1274.07L1.00006 1274.07" stroke="#D4D4FA" stroke-width="0.8037"/>
<path d="M2229 1293.36L1.00006 1293.36" stroke="#D4D4FA" stroke-width="0.8037"/>
<path d="M2229 1312.64L1.00006 1312.64" stroke="#D4D4FA" stroke-width="0.8037"/>
<path d="M2229 1331.93L1.00006 1331.93" stroke="#D4D4FA" stroke-width="0.8037"/>
<path d="M2229 1351.22L1.00006 1351.22" stroke="#D4D4FA" stroke-width="0.8037"/>
<path d="M2229 1370.51L1.00006 1370.51" stroke="#D4D4FA" stroke-width="0.8037"/>
<path d="M2229 1389.8L1.00006 1389.8" stroke="#D4D4FA" stroke-width="0.8037"/>
<path d="M2229 1409.09L1.00006 1409.09" stroke="#D4D4FA" stroke-width="0.8037"/>
<path d="M2229 1428.38L1.00006 1428.38" stroke="#D4D4FA" stroke-width="0.8037"/>
<path d="M2229 1447.67L1.00006 1447.67" stroke="#D4D4FA" stroke-width="0.8037"/>
<path d="M2229 1466.96L1.00006 1466.96" stroke="#D4D4FA" stroke-width="0.8037"/>
<path d="M2229 1486.25L1.00006 1486.25" stroke="#D4D4FA" stroke-width="0.8037"/>
<path d="M2229 1505.53L1.00006 1505.53" stroke="#D4D4FA" stroke-width="0.8037"/>
<path d="M2229 1524.82L1.00006 1524.82" stroke="#D4D4FA" stroke-width="0.8037"/>
<path d="M2229 1544.11L1.00006 1544.11" stroke="#D4D4FA" stroke-width="0.8037"/>
<path d="M2229 1563.4L1.00006 1563.4" stroke="#D4D4FA" stroke-width="0.8037"/>
<path d="M2229 1582.69L1.00006 1582.69" stroke="#D4D4FA" stroke-width="0.8037"/>
<path d="M2229 1601.98L1.00006 1601.98" stroke="#D4D4FA" stroke-width="0.8037"/>
<path d="M2229 1621.27L1.00006 1621.27" stroke="#D4D4FA" stroke-width="0.8037"/>
<path d="M2229 1640.56L1.00006 1640.56" stroke="#D4D4FA" stroke-width="0.8037"/>
<path d="M2229 1659.85L1.00006 1659.85" stroke="#D4D4FA" stroke-width="0.8037"/>
<path d="M2229 1679.13L1.00006 1679.13" stroke="#D4D4FA" stroke-width="0.8037"/>
<path d="M2229 1698.42L1.00006 1698.42" stroke="#D4D4FA" stroke-width="0.8037"/>
<path d="M2229 1717.71L1.00006 1717.71" stroke="#D4D4FA" stroke-width="0.8037"/>
<path d="M2229 1737L1.00006 1737" stroke="#D4D4FA" stroke-width="0.8037"/>
<path d="M2229 1756.29L1.00006 1756.29" stroke="#D4D4FA" stroke-width="0.8037"/>
</svg>
