<svg width="158" height="43" viewBox="0 0 158 43" fill="none" xmlns="http://www.w3.org/2000/svg">
<g id="Group">
<path id="Vector" d="M41.5987 8.4375V34.0626H36.3701V8.4375H41.5987Z" fill="white"/>
<path id="Vector_2" d="M62.8916 16.7719V34.0925C62.8916 39.4608 58.7013 42.7529 53.584 42.7529C48.6446 42.7529 44.9586 39.6758 44.6026 35.3456L49.7942 35.3827C50.0092 37.2067 51.6186 38.0297 53.7694 38.0297C55.7718 38.0297 57.6704 36.9546 57.6704 34.1296V31.9497C56.3429 32.8098 54.6297 33.3066 52.7311 33.3066C47.9697 33.3066 44.1428 29.4435 44.1428 25.0022C44.1428 19.849 47.9697 16.3789 52.7311 16.3789C54.6297 16.3789 56.3429 16.8831 57.6704 17.7358V16.809L62.8916 16.7719ZM57.6704 26.9745V22.7481C56.595 21.2059 55.1266 20.672 53.6581 20.672C51.0772 20.672 49.3269 22.3922 49.3269 25.0022C49.3269 26.9374 51.1143 29.0135 53.6581 29.0135C55.1266 29.0506 56.6321 28.5093 57.6704 26.9745Z" fill="white"/>
<path id="Vector_3" d="M83.7245 25.2173C83.7245 30.5484 79.7864 34.3447 74.491 34.3447C69.1586 34.3447 65.2205 30.5484 65.2205 25.2173C65.2205 19.9232 69.1586 16.0527 74.491 16.0527C79.7938 16.0601 83.7245 19.9232 83.7245 25.2173ZM78.6813 25.2173C78.6813 22.7111 77.0349 20.6721 74.491 20.6721C71.9101 20.6721 70.2636 22.7111 70.2636 25.2173C70.2636 27.7901 71.9101 29.7254 74.491 29.7254C77.0349 29.6957 78.6813 27.7976 78.6813 25.2173Z" fill="white"/>
<path id="Vector_4" d="M116.156 16.809V34.0184L111.039 34.0555V33.0916C109.712 33.9517 107.998 34.4855 106.1 34.4855C101.338 34.4855 97.5115 30.4446 97.5115 25.4693C97.5115 20.457 101.338 16.416 106.1 16.416C107.998 16.416 109.712 16.9499 111.039 17.81V16.8461L116.156 16.809ZM111.002 28.0793V22.8223C109.927 21.28 108.421 20.8574 106.923 20.8574C104.312 20.8574 102.488 22.9706 102.488 25.4767C102.488 27.9458 104.312 30.059 106.923 30.059C108.428 30.0516 109.927 29.6215 111.002 28.0793Z" fill="white"/>
<path id="Vector_5" d="M137.204 24.7204V34.0629H132.154V25.3284C132.154 22.5035 130.759 21.0353 128.253 21.0353C126.962 21.0353 125.494 21.7842 124.277 23.2153V34.0555H119.123V16.8461H124.277V18.1362C125.672 17.024 127.318 16.416 129.254 16.416C133.837 16.416 137.204 19.634 137.204 24.7204Z" fill="white"/>
<path id="Vector_6" d="M33.9747 34.0259H28.6794L25.2011 21.1763L17.755 34.0259H11.8144L23.3025 14.1323L21.4409 7.19222L5.94057 34.0333H0L19.6536 0H24.8822L27.1368 8.48237H32.5063L28.8574 14.8516L33.9747 34.0259Z" fill="white"/>
<path id="Vector_7" d="M158 8.4375V34.0626H152.771V33.0987C151.444 33.9588 149.731 34.4926 147.832 34.4926C143.071 34.4926 139.244 30.4516 139.244 25.4393C139.244 20.4641 143.071 16.4231 147.832 16.4231C149.731 16.4231 151.444 16.9569 152.771 17.817V8.4375H158ZM152.779 28.0789V22.7849C151.703 21.2426 150.168 20.82 148.663 20.82C146.015 20.82 144.191 22.9332 144.191 25.4393C144.191 27.9825 146.015 30.0883 148.663 30.0883C150.161 30.0883 151.666 29.6583 152.779 28.0789Z" fill="white"/>
<path id="Vector_8" d="M96.5401 21.1766C95.3979 21.3174 92.7428 21.4657 91.1705 23.6086V34.0558H86.0161V16.8835H91.1705V18.1736C92.3498 17.1727 94.1075 16.5647 96.5401 16.8167V21.1766Z" fill="white"/>
</g>
</svg>
